<svg width="30" height="31" viewBox="0 0 30 31" fill="none" xmlns="http://www.w3.org/2000/svg">
<path fill-rule="evenodd" clip-rule="evenodd" d="M0.306516 29.6935C-0.102172 29.2848 -0.102172 28.6222 0.306516 28.2135L28.2135 0.306516C28.6222 -0.102172 29.2848 -0.102172 29.6935 0.306516C30.1022 0.715204 30.1022 1.37782 29.6935 1.78651L1.78651 29.6935C1.37782 30.1022 0.715204 30.1022 0.306516 29.6935Z" fill="white"/>
<path fill-rule="evenodd" clip-rule="evenodd" d="M0.306516 0.489217C0.715204 0.0805284 1.37782 0.0805284 1.78651 0.489217L29.6935 28.3962C30.1022 28.8049 30.1022 29.4675 29.6935 29.8762C29.2848 30.2849 28.6222 30.2849 28.2135 29.8762L0.306516 1.96921C-0.102172 1.56052 -0.102172 0.897905 0.306516 0.489217Z" fill="white"/>
</svg>
